<?xml version="1.0" encoding="UTF-8" standalone="no"?>
<!-- Created with Inkscape (http://www.inkscape.org/) -->

<svg
   xmlns:dc="http://purl.org/dc/elements/1.1/"
   xmlns:cc="http://creativecommons.org/ns#"
   xmlns:rdf="http://www.w3.org/1999/02/22-rdf-syntax-ns#"
   xmlns:svg="http://www.w3.org/2000/svg"
   xmlns="http://www.w3.org/2000/svg"
   xmlns:sodipodi="http://sodipodi.sourceforge.net/DTD/sodipodi-0.dtd"
   xmlns:inkscape="http://www.inkscape.org/namespaces/inkscape"
   id="svg3055"
   version="1.1"
   inkscape:version="0.48.4 r9939"
   width="67"
   height="65"
   sodipodi:docname="ShowImage.ashx.png">
  <metadata
     id="metadata3061">
    <rdf:RDF>
      <cc:Work
         rdf:about="">
        <dc:format>image/svg+xml</dc:format>
        <dc:type
           rdf:resource="http://purl.org/dc/dcmitype/StillImage" />
        <dc:title></dc:title>
      </cc:Work>
    </rdf:RDF>
  </metadata>
  <defs
     id="defs3059" />
  <sodipodi:namedview
     pagecolor="#ffffff"
     bordercolor="#666666"
     borderopacity="1"
     objecttolerance="10"
     gridtolerance="10"
     guidetolerance="10"
     inkscape:pageopacity="0"
     inkscape:pageshadow="2"
     inkscape:window-width="1024"
     inkscape:window-height="699"
     id="namedview3057"
     showgrid="false"
     inkscape:zoom="5.2537313"
     inkscape:cx="33.5"
     inkscape:cy="32.5"
     inkscape:window-x="-4"
     inkscape:window-y="-4"
     inkscape:window-maximized="1"
     inkscape:current-layer="svg3055" />
  <path
     style="fill:#000000"
     d="m 31.991359,59.985689 c -2.270093,-2.181309 -4.273243,-4.993809 -4.451446,-6.25 -0.259256,-1.827559 -1.123353,-2.394849 -4.324004,-2.838758 -5.291647,-0.733917 -8.389807,-2.525196 -9.523117,-5.506028 -1.46922,-3.864342 0.448715,-7.374457 5.007992,-9.165392 2.184136,-0.857953 4.236374,-2.39554 4.560529,-3.41686 0.646908,-2.038228 1.987221,-2.422192 2.960127,-0.847997 1.274511,2.062203 -0.645218,4.660385 -5.01043,6.781168 -6.794048,3.300804 -5.845426,7.629664 1.949142,8.894548 l 3.622702,0.587883 -0.283473,-4.386274 c -0.217033,-3.358231 0.06809,-4.386274 1.216528,-4.386274 1.133406,0 1.622198,1.629898 2,6.669086 0.275,3.667997 0.801544,6.969541 1.170097,7.336764 1.351693,1.346813 4.088503,-4.679052 4.212439,-9.274879 0.0937,-3.474633 0.52457,-4.730971 1.622522,-4.730971 1.09216,0 1.494942,1.145425 1.494942,4.251293 0,3.928173 0.200594,4.251195 2.639216,4.25 3.375451,-0.0017 7.389898,-3.180062 6.603827,-5.22853 -0.324762,-0.846314 -2.537303,-2.609749 -4.916759,-3.918744 -3.229705,-1.776737 -4.406487,-3.073739 -4.642706,-5.117005 -0.361549,-3.127348 1.726142,-3.798249 2.50859,-0.806162 0.286298,1.094803 2.301221,2.649585 4.653459,3.590764 4.71097,1.884956 5.6174,2.93072 5.63906,6.505878 0.02599,4.289869 -2.541485,6.729889 -8.479772,8.05882 -3.926929,0.878808 -5.945978,1.937888 -7.125073,3.737415 -1.598272,2.439271 -1.555466,2.584982 1.496424,5.093688 3.560059,2.926429 3.935339,4.082583 1.325179,4.082583 -0.989205,0 -3.655903,-1.784707 -5.925995,-3.966016 z m -17.82295,-24.11084 c -1.122641,-1.816472 -0.67721,-8.683238 0.756079,-11.655713 1.170226,-2.426913 1.094811,-3.206775 -0.61291,-6.338034 -2.316052,-4.246691 -1.72225,-6.388466 2.416475,-8.715944 2.228176,-1.25305 2.915768,-2.253084 2.55897,-3.7217611 -0.60467,-2.4889777 0.820111,-4.9859697 2.317083,-4.0607907 0.611491,0.3779228 1.111803,1.5605746 1.111803,2.6281153 0,2.2190985 0.05996,2.2395705 3.1849,1.087409 5.535377,-2.0408857 7.8151,-2.2258554 7.8151,-0.6340932 0,0.8527402 -0.672757,1.8085977 -1.495015,2.1241277 -1.137089,0.436342 -1.34362,1.52047 -0.862654,4.528264 0.532369,3.329254 0.291541,4.193293 -1.523023,5.464263 l -2.155385,1.50969 2.07164,2.633663 c 1.646052,2.092616 1.935856,3.437355 1.410685,6.545813 -0.417498,2.471152 -0.191127,4.790028 0.614573,6.295492 1.906031,3.561451 0.117932,4.291717 -2.645893,1.080591 -2.647408,-3.075869 -2.880818,-4.338652 -1.481997,-8.017831 0.765582,-2.013633 0.494137,-2.866018 -1.513244,-4.751855 -1.887415,-1.773134 -2.717256,-2.026981 -3.632931,-1.111306 -0.915675,0.915675 -0.912649,1.460863 0.01324,2.386756 0.66,0.66 1.2,1.785 1.2,2.5 0,1.874063 -2.946699,1.602475 -3.692211,-0.340299 -1.082778,-2.821673 -3.307789,1.397517 -3.307789,6.272412 0,4.254714 -1.259146,6.375631 -2.5475,4.291031 z m 6.314727,-22.070702 c -1.361442,-2.624183 -3.767227,-2.754055 -3.767227,-0.203367 0,0.815324 0.493929,2.405323 1.097621,3.533331 0.954109,1.78277 1.285444,1.863101 2.534151,0.614393 1.201291,-1.201291 1.223473,-1.847201 0.135455,-3.944357 z m 6.945173,0.346466 c 1.77907,-1.130578 0.39397,-5.198908 -1.770014,-5.198908 -2.488135,0 -3.251208,1.554443 -1.953446,3.979333 1.170103,2.186358 1.851129,2.40942 3.72346,1.219575 z m 10.075572,11.051092 c -3.136165,-3.605962 -3.264682,-18.25 -0.160164,-18.25 0.797005,0 1.372192,1.047935 1.372192,2.5 0,2.296296 0.366667,2.5 4.5,2.5 4.172043,0 4.5,-0.188272 4.5,-2.583334 0,-1.626218 0.46312,-2.426184 1.25,-2.159175 1.807305,0.613267 1.703881,15.894456 -0.122445,18.091487 -1.901734,2.287746 -9.320126,2.222994 -11.339583,-0.09898 z m 8.656879,-2.5 c 0.210144,-0.6875 0.634771,-2.7125 0.943615,-4.5 l 0.561534,-3.25 -4.475,0 c -4.277685,0 -4.475,0.128672 -4.475,2.918213 0,1.605016 0.273145,3.630016 0.606989,4.5 0.72722,1.895104 6.277689,2.164424 6.837862,0.331787 z"
     id="path3065"
     inkscape:connector-curvature="0" />
</svg>
