<?xml version="1.0" encoding="UTF-8" standalone="no"?>
<!-- Created with Inkscape (http://www.inkscape.org/) -->

<svg
   xmlns:dc="http://purl.org/dc/elements/1.1/"
   xmlns:cc="http://creativecommons.org/ns#"
   xmlns:rdf="http://www.w3.org/1999/02/22-rdf-syntax-ns#"
   xmlns:svg="http://www.w3.org/2000/svg"
   xmlns="http://www.w3.org/2000/svg"
   xmlns:sodipodi="http://sodipodi.sourceforge.net/DTD/sodipodi-0.dtd"
   xmlns:inkscape="http://www.inkscape.org/namespaces/inkscape"
   id="svg2"
   version="1.1"
   inkscape:version="0.48.4 r9939"
   width="154.37737"
   height="56.831665"
   sodipodi:docname="xiaoxue.jpg.svg">
  <metadata
     id="metadata8">
    <rdf:RDF>
      <cc:Work
         rdf:about="">
        <dc:format>image/svg+xml</dc:format>
        <dc:type
           rdf:resource="http://purl.org/dc/dcmitype/StillImage" />
        <dc:title></dc:title>
      </cc:Work>
    </rdf:RDF>
  </metadata>
  <defs
     id="defs6" />
  <sodipodi:namedview
     pagecolor="#ffffff"
     bordercolor="#666666"
     borderopacity="1"
     objecttolerance="10"
     gridtolerance="10"
     guidetolerance="10"
     inkscape:pageopacity="0"
     inkscape:pageshadow="2"
     inkscape:window-width="1366"
     inkscape:window-height="699"
     id="namedview4"
     showgrid="false"
     inkscape:zoom="1.8733333"
     inkscape:cx="132.5165"
     inkscape:cy="29.921429"
     inkscape:window-x="-4"
     inkscape:window-y="-4"
     inkscape:window-maximized="1"
     inkscape:current-layer="svg2"
     fit-margin-top="0"
     fit-margin-left="0"
     fit-margin-right="0"
     fit-margin-bottom="0" />
  <path
     style="fill:#000000"
     d="m 2.6326811,55.592625 c 0.17782,-0.761873 2.34832,-2.919466 4.82332,-4.79465 5.0957799,-3.860822 6.9122999,-8.540503 2.8317799,-7.29519 -1.2824799,0.391394 -3.0857999,1.372843 -4.0073799,2.180998 -0.92157,0.808154 -2.49639,1.311301 -3.49959,1.118103 -1.41579,-0.272656 -0.74728,-1.173401 2.98712,-4.024827 2.64611,-2.020457 5.3459299,-3.868973 5.9995899,-4.107814 0.90569,-0.330927 0.88953,-0.881254 -0.0679,-2.312826 -2.2491999,-3.363109 -2.5776799,-4.62545 -1.60487,-6.167661 1.68922,-2.677976 5.04904,-3.284297 7.44563,-1.343656 1.87249,1.516255 2.01199,2.08413 0.98387,4.005189 -0.65888,1.23114 -0.99743,2.775988 -0.75231,3.432997 0.24511,0.657008 0.93816,-0.04294 1.5401,-1.555439 1.5772,-3.963006 4.14395,-3.597881 4.14395,0.589485 0,2.591697 -0.55981,3.59455 -2.5,4.478561 -1.5962,0.727277 -2.50135,1.960248 -2.50374,3.410515 -0.007,4.257115 -3.57298,8.431043 -9.5349499,11.160522 -6.62654,3.033728 -6.71047,3.050097 -6.28463,1.225693 z M 98.706,44.988809 c -4.06277,-2.477116 -4.16525,-3.798905 -0.25,-3.224268 2.4568,0.360582 3,0.0878 3,-1.506526 0,-2.866981 -0.6728,-3.141087 -5.20849,-2.121987 -2.78869,0.626578 -4.45787,0.575459 -5.19234,-0.159014 -1.50375,-1.503749 1.01764,-2.964378 5.15083,-2.983852 2.21542,-0.01044 3.25,-0.492813 3.25,-1.515313 0,-0.833333 0.88889,-1.5 2,-1.5 1.1,0 2,-0.45 2,-1 0,-1.412414 -1.2983,-1.241613 -3.55887,0.468197 -2.48371,1.878581 -4.08235,1.909143 -4.77989,0.09138 -0.83465,-2.175061 9.62495,-4.396873 11.88175,-2.523901 1.46152,1.212961 1.39452,1.503332 -0.71519,3.099259 -2.29795,1.738326 -2.26048,1.753711 2.9222,1.19976 4.85412,-0.518833 5.25,-0.401799 5.25,1.55208 0,1.869204 -0.57737,2.113225 -5,2.113225 -4.78457,0 -5.00059,0.118487 -5.01365,2.75 -0.0169,3.394325 -1.00314,7.251278 -1.85298,7.246262 -0.34835,-0.0021 -2.09587,-0.895442 -3.88337,-1.985302 z m 29.75,-0.58401 c 0,-0.659924 2.025,-1.50353 4.5,-1.874679 4.97964,-0.746743 5.97974,-2.244251 1.82712,-2.735849 -3.76431,-0.445628 -3.9947,-2.432906 -0.36618,-3.15861 3.44813,-0.689626 3.9966,-2.174147 1.0846,-2.935653 -1.84409,-0.48224 -3.89761,-5.203418 -2.75867,-6.34236 1.07424,-1.074238 11.6779,-2.015034 12.57705,-1.115883 0.56182,0.56182 1.79644,0.453039 3.16382,-0.278762 1.56407,-0.837064 1.87684,-1.426091 1.03389,-1.947063 -1.26023,-0.778868 -2.92039,-0.697061 -12.06163,0.594353 -3.025,0.427352 -6.175,0.797378 -7,0.82228 -0.825,0.0249 -1.6438,1.057776 -1.81955,2.295276 -0.32223,2.268831 -3.48402,3.18586 -4.62412,1.341151 -0.68841,-1.113877 5.04818,-6.091151 7.0204,-6.091151 1.63566,0 1.90399,-1.584864 0.42327,-2.5 -1.9465,-1.203006 -0.95612,-2.417606 2.5,-3.065978 2.83993,-0.532774 3.5,-1.107094 3.5,-3.045313 0,-1.752466 0.55387,-2.388709 2.07946,-2.388709 1.81195,0 1.99051,0.404924 1.38808,3.147784 l -0.69137,3.147784 3.18896,-2.270739 c 2.1995,-1.56618 3.51035,-1.949347 4.22478,-1.234916 1.42045,1.420443 0.25051,2.993518 -3.51646,4.728148 -1.7454,0.803729 -2.15389,1.208397 -0.90775,0.899262 3.57775,-0.887551 9.23092,1.443597 10.29632,4.245797 1.58285,4.163212 1.21745,4.637703 -3.12308,4.055515 -3.58468,-0.480806 -4.19004,-0.261642 -5.16052,1.868331 -0.6047,1.327169 -1.9131,2.413034 -2.90755,2.413034 -1.21825,0 -1.61506,0.503045 -1.21638,1.542002 0.33551,0.874312 1.51267,1.415565 2.71862,1.25 1.35368,-0.185848 2.12689,0.253307 2.12689,1.207998 0,0.825 -1.0125,1.643798 -2.25,1.819551 -1.2375,0.175753 -2.25,0.907976 -2.25,1.627163 0,0.958238 1.20233,1.172092 4.5,0.800396 2.93518,-0.330837 4.55216,-0.114253 4.65,0.622838 0.0825,0.621528 0.195,1.581536 0.25,2.13335 0.0599,0.601181 -4.40894,1.127587 -11.15,1.313406 -8.25492,0.227549 -11.25,-0.0093 -11.25,-0.889754 z m 13.54112,-14.493481 c 0.36253,-0.586592 0.41005,-1.315636 0.10559,-1.620097 -0.85163,-0.851624 -5.64671,0.596808 -5.64671,1.70568 0,1.326261 4.71354,1.25346 5.54112,-0.08558 z m -4.8862,-9.476597 c 0.93115,-2.426536 -0.15973,-2.661527 -2.14937,-0.463003 -1.65677,1.830709 -1.66806,2.006131 -0.12915,2.006131 0.9275,0 1.95284,-0.694408 2.27852,-1.543128 z M 61.956001,42.414755 c -1.65,-0.852925 -3.675,-2.232977 -4.5,-3.066783 -1.33859,-1.352874 -1.08471,-1.440176 2.35922,-0.811286 l 3.85922,0.704724 -0.35922,-12.131811 c -0.19757,-6.672497 -0.0585,-12.131798 0.30899,-12.131781 3.55302,1.64e-4 3.83179,1.099217 3.83179,15.10702 0,15.076414 -0.035,15.154902 -5.5,12.329917 z M 1.0297611,37.791231 c -0.22666999,-0.72236 -0.62915999,-4.107575 -0.89441999,-7.522699 -0.53202,-6.8494 0.43149,-8.597472 4.19618999,-7.612983 2.07143,0.541692 2.24297,0.295843 1.94796,-2.79185 -0.24852,-2.601157 -0.78321,-3.38585 -2.30713,-3.38585 -2.86838,0 -3.02540999,-3.029767 -0.3402,-6.5636668 C 7.3344511,5.0417512 12.525791,-0.02409676 13.791851,8.6241969e-5 15.629501,0.03518624 18.980371,3.0754202 22.869821,8.2365022 c 4.01869,5.3325728 4.49067,7.6920568 1.68542,8.4256448 -1.67763,0.438711 -3.58955,5.140384 -2.5276,6.215702 0.21726,0.22 1.86503,0.445 3.66169,0.5 l 3.26667,0.1 0.0963,7.75 c 0.0858,6.903071 -0.10545,7.75 -1.75,7.75 -1.58993,0 -1.84631,-0.833148 -1.84631,-6 0,-6.86879 0.97287,-6.403683 -12.92311,-6.178256 -8.3844199,0.136017 -9.0387899,0.632067 -9.0615799,6.869239 -0.0149,4.073074 -1.61126,6.768456 -2.44155,4.122399 z M 18.456001,20.477849 c 0,-1.925 -0.45,-3.5 -1,-3.5 -1.10887,0 -1.38676,5.279902 -0.33333,6.333333 1.15094,1.150947 1.33333,0.763375 1.33333,-2.833333 z m -6,-1.059017 c 0,-2.118034 -0.40488,-3.308786 -1,-2.940983 -0.55,0.339919 -1,1.941476 -1,3.559017 0,1.617541 0.45,2.940983 1,2.940983 0.55,0 1,-1.601558 1,-3.559017 z m 38.49445,14.552886 c -0.99854,-1.103372 -1.62582,-2.115872 -1.39395,-2.25 0.23186,-0.134128 2.09736,-1.78811 4.14555,-3.675516 2.04819,-1.887406 3.98599,-3.169651 4.3062,-2.849434 0.52879,0.528783 -4.1443,10.781081 -4.91411,10.781081 -0.18049,0 -1.14515,-0.902759 -2.14369,-2.006131 z m 23.59305,-3.492817 c -1.77027,-3.136761 -3.03576,-5.88612 -2.8122,-6.109689 0.22357,-0.223568 1.94059,0.624879 3.8156,1.885437 3.53384,2.375788 4.7042,5.480014 3.12798,8.296571 -0.73946,1.321339 -1.5236,0.548409 -4.13138,-4.072319 z M 85.456,32.206161 c 0,-0.505085 0.94588,-1.774345 2.10195,-2.820577 2.08482,-1.886736 2.09909,-1.881969 1.75,0.584797 -0.32443,2.292552 -3.85195,4.340024 -3.85195,2.23578 z m 27.2065,-0.939746 c -1.80396,-0.34535 -2.15249,-0.883377 -1.63285,-2.520618 0.6439,-2.028755 0.44284,-2.066176 -7.92745,-1.475476 -4.72346,0.33334 -9.50118,1.094732 -10.61716,1.691984 -1.62916,0.871901 -2.02904,0.783359 -2.02904,-0.449272 0,-0.844351 0.4431,-1.535184 0.98467,-1.535184 0.60129,0 0.75219,-2.238761 0.38757,-5.75 -0.59425,-5.722579 -0.58225,-5.755547 2.51533,-6.913136 2.53012,-0.945522 3.11243,-0.908046 3.11243,0.20031 0,0.749895 -0.7875,1.811707 -1.75,2.359581 -1.40563,0.800114 -1.15966,0.93072 1.25,0.66371 1.65,-0.182833 3.1676,-0.383733 3.37244,-0.446445 0.20485,-0.06271 -0.24515,-0.873274 -1,-1.801251 -1.20484,-1.481186 -1.15411,-1.605365 0.41541,-1.016859 1.13823,0.42679 1.99466,0.131467 2.35699,-0.812769 1.24052,-3.232727 2.38315,-1.213397 1.92998,3.410788 -0.43954,4.485238 -0.31525,4.850952 1.48838,4.379294 2.49476,-0.652397 3.5613,-2.273223 1.49582,-2.273223 -0.85746,0 -1.55902,-0.45 -1.55902,-1 0,-0.55 0.9,-1 2,-1 1.1,0 2,-0.407871 2,-0.90638 0,-0.49851 -0.9,-0.671025 -2,-0.383369 -1.1,0.287656 -2,0.05085 -2,-0.526232 0,-1.448379 3.57819,-2.45267 6,-1.684019 2.18419,0.693235 2.45886,1.734578 1.13833,4.315741 -0.47391,0.926343 -1.15749,2.921759 -1.51905,4.434259 -0.55007,2.301063 -0.33154,2.75 1.33861,2.75 2.23621,0 5.56701,4.341672 4.56929,5.956024 -0.35487,0.574187 -0.95616,0.982694 -1.3362,0.907794 -0.38004,-0.0749 -1.72306,-0.333764 -2.98448,-0.575252 z M 98.24933,23.937172 c 0.70093,-1.122373 1.00762,-2.472373 0.68153,-3 -0.80397,-1.300846 -3.19992,-1.213209 -4.04107,0.147811 -0.46045,0.745027 0.0108,0.88652 1.44098,0.432612 2.7968,-0.887671 2.72119,0.800589 -0.12477,2.78583 -1.57516,1.098773 -1.79727,1.585252 -0.74055,1.621972 0.8302,0.02885 2.08295,-0.865853 2.78388,-1.988225 z m 3.93584,0.43651 c -0.3323,-0.332291 -1.1948,-0.367818 -1.91667,-0.07895 -0.79773,0.319226 -0.56078,0.556183 0.60417,0.604167 1.05416,0.04342 1.64479,-0.192928 1.3125,-0.52522 z m 4.77083,-0.395833 c 0.33992,-0.55 -0.11008,-1 -1,-1 -0.88992,0 -1.33992,0.45 -1,1 0.33992,0.55 0.78992,1 1,1 0.21008,0 0.66008,-0.45 1,-1 z m -5,-5 c 0.33992,-0.55 0.16803,-1 -0.38197,-1 -0.55,0 -1.27811,0.45 -1.61803,1 -0.33992,0.55 -0.16803,1 0.38197,1 0.55,0 1.27811,-0.45 1.61803,-1 z"
     id="path2989"
     inkscape:connector-curvature="0" />
</svg>
