<?xml version="1.0" encoding="UTF-8" standalone="no"?>
<!-- Created with Inkscape (http://www.inkscape.org/) -->

<svg
   xmlns:dc="http://purl.org/dc/elements/1.1/"
   xmlns:cc="http://creativecommons.org/ns#"
   xmlns:rdf="http://www.w3.org/1999/02/22-rdf-syntax-ns#"
   xmlns:svg="http://www.w3.org/2000/svg"
   xmlns="http://www.w3.org/2000/svg"
   xmlns:sodipodi="http://sodipodi.sourceforge.net/DTD/sodipodi-0.dtd"
   xmlns:inkscape="http://www.inkscape.org/namespaces/inkscape"
   width="744.09448819"
   height="1052.3622047"
   id="svg2"
   version="1.1"
   inkscape:version="0.48.4 r9939"
   sodipodi:docname="新文件 1">
  <defs
     id="defs4" />
  <sodipodi:namedview
     id="base"
     pagecolor="#ffffff"
     bordercolor="#666666"
     borderopacity="1.0"
     inkscape:pageopacity="0.0"
     inkscape:pageshadow="2"
     inkscape:zoom="0.35"
     inkscape:cx="375"
     inkscape:cy="291.42857"
     inkscape:document-units="px"
     inkscape:current-layer="layer1"
     showgrid="false"
     inkscape:window-width="1024"
     inkscape:window-height="699"
     inkscape:window-x="-4"
     inkscape:window-y="2"
     inkscape:window-maximized="1" />
  <metadata
     id="metadata7">
    <rdf:RDF>
      <cc:Work
         rdf:about="">
        <dc:format>image/svg+xml</dc:format>
        <dc:type
           rdf:resource="http://purl.org/dc/dcmitype/StillImage" />
        <dc:title></dc:title>
      </cc:Work>
    </rdf:RDF>
  </metadata>
  <g
     inkscape:label="Layer 1"
     inkscape:groupmode="layer"
     id="layer1">
    <g
       id="g2996"
       transform="matrix(1.2828417,0,0,1,-86.528601,-37.142858)">
      <path
         style="fill:#e6e6e6;fill-opacity:1"
         d="m 412.87559,929.33426 c -13.41621,-17.8464 -31.88494,-41.98632 -41.04163,-53.64424 -23.94667,-30.48796 -34.01229,-46.38533 -34.01229,-53.7181 0,-3.53329 -1.29775,-7.49031 -2.88389,-8.7934 -1.58614,-1.30305 -5.84815,-10.50889 -9.47114,-20.45736 -5.6832,-15.60562 -6.58726,-25.88042 -6.58726,-74.86522 0,-69.32196 -0.62025,-70.63558 -33.39759,-70.73197 -24.3793,-0.0718 -25.58399,-0.73785 -35.50982,-19.63542 -6.93751,-13.20814 -6.98025,-14.13135 -2.91424,-62.94908 3.83612,-46.05763 4.62104,-49.63887 11.1533,-50.88781 4.52725,-0.8656 7.80116,1.37359 9.20379,6.2949 1.19736,4.20112 4.15994,10.30349 6.58351,13.56081 3.41506,4.58992 3.91903,13.24236 2.23995,38.45665 -2.06866,31.06441 -1.83187,32.81863 5.2413,38.82859 9.66328,8.21074 33.711,17.51831 36.31575,14.05586 2.83798,-3.77246 1.41391,-53.8273 -1.68557,-59.24654 -4.51225,-7.88937 0.97496,-25.33579 8.41879,-26.7673 8.32298,-1.60054 12.24155,9.45529 17.20846,48.55196 2.9315,23.07508 4.18485,26.22878 10.42379,26.22878 6.66096,0 7.16091,-2.02755 8.2322,-33.38563 1.23763,-36.22707 5.32041,-47.27344 14.61089,-39.53118 3.89323,3.24443 5.88633,12.14757 7.01646,31.34255 1.85513,31.50883 6.43021,35.37512 21.67836,18.31982 10.7269,-11.99822 12.89968,-26.95576 5.15655,-35.49803 -2.60456,-2.87338 -4.73557,-9.6028 -4.73557,-14.95431 0,-5.35147 -1.42067,-10.89712 -3.15705,-12.32363 -7.86329,-6.46001 3.58587,-52.45757 13.0571,-52.45757 4.8664,0 5.88519,3.25445 5.88519,18.79981 0,19.41544 7.25284,49.65086 14.69644,61.26614 2.33524,3.64395 4.24585,14.7292 4.24585,24.6339 0,15.90677 -1.68438,20.15378 -14.43216,36.38982 -10.33201,13.15921 -17.0589,18.38134 -23.67788,18.38134 -9.23452,0 -9.24571,0.0336 -9.26583,26.22878 -0.0164,21.4003 -1.9459,31.22833 -10.48107,53.38674 -10.23587,26.57375 -18.94797,35.48801 -29.75115,30.44163 -4.20928,-1.96623 -5.61873,-30.32165 -1.50719,-30.32165 3.66933,0 13.0559,-25.8147 13.73348,-37.76945 1.45344,-25.64369 0.0711,-30.00384 -9.06924,-28.60582 l -8.68189,1.32789 -0.89012,52.02015 c -0.94753,55.37488 3.28153,83.67268 15.74476,105.35255 10.85402,18.88065 38.59611,60.10429 49.07559,72.92437 5.64323,6.90363 10.26041,14.0828 10.26041,15.95365 0,1.87089 8.52403,14.45453 18.94229,27.9637 21.7932,28.25885 24.1046,38.47074 8.68188,38.35702 -8.55462,-0.063 -14.31576,-5.47015 -34.65351,-32.5237 z M 330.36532,528.94427 c -0.61774,-3.05575 -2.73209,-12.25419 -4.69855,-20.44097 -1.96646,-8.18679 -4.51319,-23.98005 -5.65939,-35.09616 l -2.08402,-20.21109 -14.4987,2.17233 c -7.97429,1.19478 -16.99355,0.39747 -20.0428,-1.7718 -4.57539,-3.25497 -5.5441,-2.17494 -5.5441,6.18119 0,5.56892 2.131,12.47625 4.73557,15.34962 2.60456,2.87337 4.73557,8.14921 4.73557,11.72408 0,3.57487 2.35642,9.96096 5.23648,14.19131 4.21857,6.1964 4.5536,9.68384 1.72351,17.94051 -3.35875,9.79898 -3.92535,9.9755 -12.90539,4.02055 -5.32303,-3.52988 -12.29232,-13.88698 -16.08563,-23.90497 -3.68129,-9.72212 -7.94147,-20.50928 -9.46709,-23.97148 -1.52561,-3.4622 -3.57763,-9.12761 -4.56005,-12.58981 -0.98242,-3.4622 -3.05956,-9.12762 -4.61587,-12.58982 -1.55631,-3.4622 -5.11703,-13.37668 -7.91272,-22.03218 -2.79568,-8.6555 -7.35064,-22.13184 -10.12214,-29.94743 -8.1158,-22.88649 -3.03448,-29.96018 25.58639,-35.6187 13.15011,-2.59985 29.17877,-4.75593 35.61926,-4.79127 20.96674,-0.11507 20.82187,0.4974 18.50302,-78.22428 -1.14526,-38.88003 -2.95598,-79.47457 -4.02382,-90.2101 -1.72159,-17.30789 -1.14013,-20.08927 5.13261,-24.55176 5.98521,-4.25794 8.05839,-3.72429 13.46814,3.46679 8.77083,11.6589 11.37054,37.61523 11.59083,115.72681 l 0.1882,66.72948 29.8674,-2.60794 c 26.68882,-2.33039 31.21294,-1.65324 42.51063,6.36282 17.36466,12.32076 23.91588,31.04879 18.80042,53.74481 -2.09167,9.28015 -5.34892,18.57021 -7.23837,20.64458 -5.36051,5.88517 -40.89765,17.10472 -54.40383,17.17603 -6.69487,0.0352 -13.89096,1.51601 -15.99131,3.29038 -2.43005,2.0529 -4.1522,17.65518 -4.73557,42.90299 -0.78341,33.90561 -1.72177,39.88156 -6.45113,41.08413 -3.04391,0.77399 -6.03981,-1.0929 -6.65755,-4.14865 z M 297.63418,417.15918 c 10.4006,-2.57109 19.57076,-5.55279 20.37812,-6.62601 0.80737,-1.07321 0.50953,-7.75175 -0.66186,-14.8412 -1.8623,-11.27096 -3.46269,-12.88989 -12.7423,-12.88989 -5.83688,0 -11.49053,1.88847 -12.56367,4.1966 -1.07314,2.30813 -6.4845,4.22239 -12.02525,4.25391 -16.66578,0.0948 -24.07848,4.11566 -21.93264,11.89688 1.05119,3.8118 3.79423,8.44074 6.09565,10.28652 2.30141,1.8458 4.22218,9.39969 4.26839,16.78643 l 0.084,13.43043 5.09468,-10.90948 c 4.00219,-8.57009 9.14971,-11.91191 24.00487,-15.58419 z m 95.89918,-13.90322 c 1.99122,-2.18683 2.93725,-7.44865 2.10228,-11.69293 -1.5483,-7.87028 -17.52934,-12.95756 -40.70451,-12.95756 -12.30625,0 -13.66943,2.18848 -11.76313,18.88472 l 1.43745,12.58982 22.65376,-1.42399 c 12.45957,-0.7832 24.28294,-3.21322 26.27415,-5.40006 z"
         id="path3002"
         inkscape:connector-curvature="0" />
      <path
         style="fill:#8c8c8c;fill-opacity:1"
         d="m 395.94742,904.02668 c -33.06277,-42.74214 -48.05277,-65.54787 -58.4054,-88.85767 l -13.92706,-31.35796 -1.57853,-67.26226 -1.57852,-67.26227 -28.97285,-2.14249 c -15.93507,-1.17837 -29.52226,-3.06684 -30.19378,-4.19661 -15.23195,-25.62666 -15.01388,-24.53176 -13.41061,-67.33294 1.54886,-41.34869 5.17296,-62.71764 10.63667,-62.71764 1.61436,0 6.46445,8.02601 10.77799,17.83558 6.93693,15.77554 7.65635,21.26642 6.2287,47.53969 l -1.61409,29.70412 11.88245,7.4953 c 6.53534,4.12237 17.21503,8.446 23.73264,9.60809 14.22303,2.53588 17.09485,-4.44266 12.48926,-30.34897 -1.64135,-9.23253 -3.01816,-24.81243 -3.05959,-34.622 -0.063,-14.92892 0.9295,-17.83557 6.09039,-17.83557 7.02219,0 11.85985,17.37873 14.95584,53.72712 1.86631,21.91128 2.04571,22.23312 11.69699,20.98303 9.73446,-1.26087 9.80346,-1.44208 10.07043,-26.44919 0.2913,-27.28511 3.70068,-52.49605 7.08539,-52.39331 6.60467,0.20059 9.49412,9.45092 11.55591,36.99555 2.25722,30.15559 2.45879,30.71281 10.17822,28.1374 17.51037,-5.84197 23.00296,-14.42692 23.00296,-35.95392 0,-11.85532 -1.54753,-20.83635 -3.75921,-21.81634 -5.83942,-2.58738 -7.21026,-53.90202 -1.70099,-63.6731 6.98944,-12.39627 11.7743,-4.18832 11.7743,20.19764 0,15.62964 2.33807,28.05389 7.89262,41.94047 7.73022,19.32582 10.51676,49.60987 5.4765,59.51873 -3.3275,6.54163 -29.25495,25.46848 -38.97066,28.44828 -8.09942,2.4841 -8.18438,2.88542 -5.05904,23.89673 2.8998,19.49504 2.38716,23.6438 -5.84203,47.28005 -11.4262,32.81884 -16.32174,40.59792 -25.54914,40.59792 -6.17203,0 -7.40331,-2.16062 -7.40331,-12.99114 0,-7.14514 3.04123,-18.66851 6.75828,-25.60752 4.8341,-9.02429 6.85653,-19.3649 7.10336,-36.31897 l 0.34507,-23.7026 -10.2604,-1.31505 -10.26041,-1.31504 0,61.56583 c 0,59.43988 0.31989,62.45682 9.26344,87.36695 5.09489,14.19057 15.87808,35.23378 23.96265,46.76265 8.08456,11.52883 27.66059,39.84626 43.50227,62.92759 15.84169,23.08133 30.64364,44.4789 32.89323,47.55014 5.31309,7.25367 2.32516,13.35427 -6.41459,13.09702 -4.50236,-0.13261 -22.44399,-20.27619 -51.39535,-57.70332 z M 330.60705,526.76817 c -0.81908,-1.8589 -3.30801,-19.8746 -5.53096,-40.0349 -4.03608,-36.60395 -4.05605,-36.65865 -14.31589,-39.21719 -5.65079,-1.40916 -13.15998,-1.3446 -16.68708,0.14348 -4.7305,1.99578 -7.81357,-0.13597 -11.75179,-8.12558 -2.93638,-5.95715 -4.33002,-12.1886 -3.09697,-13.84766 1.23304,-1.65908 10.28817,-4.90497 20.1225,-7.2131 18.9979,-4.45883 22.01409,-9.36697 18.19296,-29.60471 -1.80436,-9.55643 -2.87717,-9.95571 -21.58965,-8.0353 -10.83001,1.11146 -24.8417,5.02271 -31.13707,8.69166 -10.94313,6.37768 -11.26913,7.16032 -7.41833,17.80959 2.2153,6.12632 8.49297,24.86061 13.9504,41.63176 5.45743,16.77114 12.89621,37.19245 16.53064,45.38067 7.42866,16.73652 4.91101,24.35238 -7.29018,22.05271 -5.6204,-1.05933 -9.00704,-6.59229 -13.78158,-22.51578 -3.48153,-11.61122 -12.48681,-34.648 -20.01173,-51.19282 -10.42957,-22.93119 -13.80648,-34.7488 -14.20672,-49.71688 l -0.52504,-19.63536 17.36376,-5.39126 c 9.55007,-2.96519 27.18439,-6.97348 39.18737,-8.90731 l 21.8236,-3.51605 -0.67309,-60.85078 c -0.3702,-33.46793 -2.14154,-73.68505 -3.93631,-89.37138 -2.46249,-21.52219 -2.32848,-30.01778 0.54612,-34.622 5.13572,-8.2258 10.45594,-7.67719 16.86674,1.73923 6.85727,10.07223 12.75882,76.41068 10.18016,114.43366 -1.03884,15.31785 -0.97463,36.71636 0.14269,47.55224 l 2.03148,19.70159 19.26733,-3.23194 c 29.68443,-4.97933 37.29564,-4.46821 49.5879,3.33006 14.18633,8.99986 21.77072,23.94648 21.77072,42.90371 0,28.5853 -15.29342,39.29659 -67.24578,47.098 l -18.31152,2.74974 0.94776,40.2192 c 0.81803,34.7143 0.23185,40.40762 -4.28272,41.59586 -2.87677,0.75716 -5.90064,-0.14424 -6.71972,-2.00316 z m 63.4316,-121.29307 c 5.83643,-1.57845 6.86633,-3.81701 5.18601,-11.27216 -3.63388,-16.12254 -9.31699,-20.46836 -27.04515,-20.68118 -37.1919,-0.44648 -37.51488,-0.3334 -37.51488,13.13369 0,24.3461 1.47409,25.56328 27.93636,23.06745 13.28521,-1.25302 27.43216,-3.16453 31.43766,-4.2478 z"
         id="path3000"
         inkscape:connector-curvature="0" />
      <path
         style="fill:#333333;fill-opacity:1"
         d="m 418.78779,931.17515 c -12.4084,-16.91719 -31.08475,-40.87666 -41.50301,-53.2433 -21.32347,-25.31132 -29.94857,-40.5223 -44.89243,-79.17102 -10.33539,-26.73007 -10.35592,-26.90679 -10.35592,-89.17786 0,-46.96379 -0.97597,-62.46631 -3.94631,-62.68403 -2.17047,-0.15905 -15.08044,-0.63125 -28.68883,-1.04915 -23.17026,-0.71157 -25.2524,-1.54804 -32.76639,-13.16299 -7.82489,-12.09549 -7.9863,-13.61538 -6.50925,-61.28856 0.83303,-26.88703 2.48219,-50.96659 3.66479,-53.51016 2.82681,-6.07996 10.28511,-2.07488 12.737,6.83973 1.06705,3.87957 3.93145,11.58873 6.36534,17.13144 3.10222,7.06469 3.55907,13.10613 1.52807,20.20708 -4.35674,15.23237 -3.49103,35.9647 1.93146,46.25557 5.28937,10.03824 22.2983,17.82332 39.02051,17.85987 l 10.70016,0.0252 -2.01827,-20.98303 c -6.64055,-69.03865 -6.63002,-63.93687 -0.12856,-62.27271 7.42787,1.90136 14.43064,27.49544 15.03487,54.95027 0.47734,21.68965 4.60852,26.56426 18.56645,21.90749 7.10751,-2.37129 7.52063,-4.04636 6.20378,-25.15466 -1.98618,-31.83721 1.42688,-53.26822 8.20867,-51.54325 4.2027,1.06896 5.78582,7.91383 7.40837,32.03113 1.13493,16.86944 2.65279,31.45499 3.373,32.41236 0.72022,0.95737 7.58717,-2.48019 15.25988,-7.63904 19.02562,-12.79209 22.69214,-29.18852 12.55848,-56.16057 -6.19935,-16.50034 -6.81474,-22.14051 -4.44055,-40.69823 1.96461,-15.35624 4.34285,-21.94583 8.281,-22.94484 4.73017,-1.19994 5.52483,1.98269 5.52483,22.12702 0,16.77832 2.26436,29.46844 7.89262,44.23256 7.6907,20.1743 9.83348,38.75296 6.00085,52.02943 -2.40762,8.34008 -21.50579,24.29318 -35.9315,30.01429 -9.11092,3.61336 -10.99157,6.2573 -10.44762,14.68812 2.27877,35.31968 1.59871,41.05409 -8.03257,67.73182 -9.30724,25.78021 -19.47356,38.3618 -25.02967,30.9762 -4.47526,-5.9489 -2.5921,-22.41785 4.39498,-38.43587 9.93307,-22.77175 10.63882,-58.58508 1.2327,-62.55351 -3.43771,-1.45035 -8.59611,-0.89203 -11.46311,1.24077 -4.46267,3.31976 -5.2329,12.66951 -5.35298,64.97843 -0.13818,60.19997 0.006,61.49219 9.75677,87.65433 6.34452,17.02231 19.8585,40.53816 37.64901,65.51354 66.55386,93.43045 71.18332,101.62462 57.41606,101.62462 -4.09504,0 -15.29309,-11.79464 -29.20268,-30.75847 z M 330.35934,522.57022 c -1.38002,-6.20751 -8.32291,-68.79215 -8.32291,-75.02442 0,-0.98706 -8.29599,-1.79464 -18.43553,-1.79464 -16.52967,0 -18.802,-1.06913 -21.98029,-10.34165 -3.99318,-11.64993 -2.95431,-13.0591 10.42386,-14.1393 5.20913,-0.4206 13.73316,-2.34193 18.94229,-4.26962 8.07785,-2.98929 9.33856,-5.29954 8.56987,-15.70425 -1.752,-23.71445 -2.20292,-24.09 -25.77105,-21.46352 -11.98355,1.33547 -26.12447,5.40883 -31.42426,9.05189 l -9.63598,6.62375 4.98893,15.67899 c 2.74392,8.62344 11.54643,33.61947 19.56115,55.54673 8.01471,21.92727 14.6165,41.66475 14.67063,43.86107 0.0541,2.19633 -4.0176,4.0848 -9.0483,4.19661 -8.38889,0.18645 -9.7724,-2.01892 -16.69822,-26.61759 -4.15332,-14.75149 -11.72924,-34.58045 -16.83537,-44.06436 -8.12823,-15.09703 -18.74895,-50.92271 -18.84796,-63.57768 -0.0458,-5.852 37.01776,-18.69875 54.15384,-18.77049 7.52869,-0.0315 16.95809,-1.2214 20.95422,-2.64419 l 7.2657,-2.58688 -1.67127,-65.55065 c -0.91921,-36.05285 -2.57537,-78.01293 -3.68038,-93.2446 -1.73767,-23.95256 -1.2665,-28.07276 3.48761,-30.4978 14.98983,-7.6462 20.48166,23.93588 20.48166,117.78473 l 0,69.67137 32.09376,-2.59906 c 36.73747,-2.97512 48.12764,1.49385 57.48704,22.55527 4.1268,9.28654 5.08743,17.05559 3.5776,28.93468 -3.32587,26.16779 -5.74945,27.55768 -70.1586,40.23529 l -13.30625,2.61905 -0.90047,40.23283 c -0.58058,25.94061 -2.20717,40.80843 -4.57887,41.85316 -2.02312,0.89119 -4.43623,-1.78844 -5.36245,-5.95472 z m 70.11063,-116.73135 c 2.76727,-3.67848 -6.02276,-35.6221 -9.89447,-35.95722 -10.84173,-0.93842 -45.54347,0.99008 -50.09439,2.78394 -6.87957,2.71174 -8.47981,9.17431 -6.55383,26.46766 l 1.58514,14.23287 31.72662,-2.7638 c 17.44964,-1.52009 32.40356,-3.66364 33.23093,-4.76345 z"
         id="path2998"
         inkscape:connector-curvature="0" />
    </g>
  </g>
</svg>
