<?xml version="1.0" encoding="UTF-8" standalone="no"?>
<!-- Created with Inkscape (http://www.inkscape.org/) -->

<svg
   xmlns:osb="http://www.openswatchbook.org/uri/2009/osb"
   xmlns:dc="http://purl.org/dc/elements/1.1/"
   xmlns:cc="http://creativecommons.org/ns#"
   xmlns:rdf="http://www.w3.org/1999/02/22-rdf-syntax-ns#"
   xmlns:svg="http://www.w3.org/2000/svg"
   xmlns="http://www.w3.org/2000/svg"
   xmlns:sodipodi="http://sodipodi.sourceforge.net/DTD/sodipodi-0.dtd"
   xmlns:inkscape="http://www.inkscape.org/namespaces/inkscape"
   id="svg2"
   version="1.1"
   inkscape:version="0.48.4 r9939"
   width="340"
   height="236"
   sodipodi:docname="恕（形聲上色）.svg"
   inkscape:export-filename="/home/Vdragon/桌面/恕（形聲上色）.png"
   inkscape:export-xdpi="90"
   inkscape:export-ydpi="90">
  <sodipodi:namedview
     pagecolor="#ffffff"
     bordercolor="#666666"
     borderopacity="1"
     objecttolerance="10"
     gridtolerance="10"
     guidetolerance="10"
     inkscape:pageopacity="0"
     inkscape:pageshadow="2"
     inkscape:window-width="1366"
     inkscape:window-height="699"
     id="namedview4"
     showgrid="false"
     inkscape:zoom="1.1165254"
     inkscape:cx="38.506689"
     inkscape:cy="202.28578"
     inkscape:window-x="-4"
     inkscape:window-y="-4"
     inkscape:window-maximized="1"
     inkscape:current-layer="svg2" />
  <metadata
     id="metadata8">
    <rdf:RDF>
      <cc:Work
         rdf:about="">
        <dc:format>image/svg+xml</dc:format>
        <dc:type
           rdf:resource="http://purl.org/dc/dcmitype/StillImage" />
        <dc:title></dc:title>
      </cc:Work>
    </rdf:RDF>
  </metadata>
  <defs
     id="defs6">
    <linearGradient
       id="linearGradient3820"
       osb:paint="solid">
      <stop
         style="stop-color:#000000;stop-opacity:0;"
         offset="0"
         id="stop3822" />
    </linearGradient>
  </defs>
  <path
     style="fill:#ff0000;fill-opacity:1;stroke:#000000;stroke-opacity:1"
     d="m 233.29337,207.99382 c 3.73636,-3.42721 8.58014,-8.86243 10.76397,-12.07826 l 3.9706,-5.84697 -5.26397,-4.17585 c -2.89518,-2.29672 -6.7209,-5.12465 -8.50159,-6.2843 -3.36537,-2.19163 -4.16158,-3.61547 -2.01238,-3.59867 1.73904,0.0136 11.34194,4.56348 14.74317,6.98537 1.54856,1.10267 3.0509,2.00486 3.33851,2.00486 1.26128,0 6.95802,-16.97186 7.21665,-21.5 0.33038,-5.78445 1.74213,-6.63257 5.76845,-3.46546 3.07203,2.41646 3.27117,3.67527 1.20774,7.63442 -0.81151,1.55707 -3.0623,6.88104 -5.00176,11.83104 l -3.52629,9 4.25177,3.48141 c 2.33847,1.91477 6.38926,5.56299 9.00176,8.10714 4.15793,4.04915 4.75,5.14213 4.75,8.76859 0,3.13853 -0.38959,4.14286 -1.60705,4.14286 -0.88388,0 -5.63983,-4.26118 -10.56877,-9.46929 l -8.96171,-9.46928 -4.99371,6.00055 c -5.34635,6.42429 -13.48452,12.40234 -18.36876,13.49314 -2.67707,0.59787 -2.26874,-7.6e-4 3.79337,-5.5613 z"
     id="path3799"
     inkscape:connector-curvature="0" />
  <path
     style="fill:#00ff00;fill-opacity:1;stroke:#000000;stroke-opacity:1"
     d="M 70.010988,210.25 C 65.652931,206.28231 65,200.95481 65,169.36351 c 0,-25.40858 0.125025,-27.36074 1.75,-27.32476 2.789136,0.0618 18.569826,6.34933 18.958856,7.55386 0.194085,0.60093 -1.461009,2.34963 -3.677987,3.886 L 78,156.272 l 0,21.29257 c 0,18.02355 0.241259,21.53383 1.571429,22.864 2.257034,2.25704 59.843121,2.37022 63.050161,0.12393 2.76329,-1.93549 4.89139,-7.81393 8.20797,-22.67279 2.61711,-11.72516 2.89295,-12.37971 5.21683,-12.37971 l 2.45361,0 0,13 c 0,11.79647 0.21441,13.36282 2.31599,16.91901 2.69419,4.55897 2.37387,7.01347 -1.51901,11.63989 C 154.35685,212.92992 153.7936,213 111.5479,213 l -38.516347,0 -3.020565,-2.75 z"
     id="path3797"
     inkscape:connector-curvature="0" />
  <path
     style="fill:#00ff00;fill-opacity:1;stroke:#000000;stroke-opacity:1"
     d="m 11.358768,205.44968 c -3.2340515,-3.23405 -2.5992445,-6.78949 1.926925,-10.79236 13.020965,-11.51551 16.137447,-16.13236 20.042642,-29.69179 1.918898,-6.6627 2.861808,-8.53003 4.427616,-8.7684 2.768164,-0.42142 3.059606,1.07784 2.095683,10.78078 -1.405466,14.14753 -6.136638,26.72135 -12.99262,34.52988 -5.943253,6.76899 -11.308657,8.13348 -15.500246,3.94189 z"
     id="path3795"
     inkscape:connector-curvature="0" />
  <path
     style="fill:#00ff00;fill-opacity:1;stroke:#000000;stroke-opacity:1"
     d="m 194.22022,201.75 c -0.56357,-0.6875 -1.55856,-3.275 -2.21108,-5.75 -3.17821,-12.05476 -13.42423,-28.39709 -24.41777,-38.94617 -3.85256,-3.69679 -4.7274,-7.05052 -1.84137,-7.05893 2.8104,-0.008 20.68648,12.60997 28.26365,19.95044 8.25954,8.00151 11.52688,14.27292 10.56616,20.28094 -1.45221,9.08161 -7.15834,15.42894 -10.35959,11.52372 z"
     id="path3793"
     inkscape:connector-curvature="0" />
  <path
     style="fill:#00ff00;fill-opacity:1;stroke:#000000;stroke-opacity:1"
     d="m 116.17926,175.25 c -0.4901,-0.9625 -1.44064,-4 -2.1123,-6.75 -1.7973,-7.35877 -7.31164,-17.15196 -13.66662,-24.27127 C 95.225601,138.43162 93.964359,135 97.008453,135 c 4.065947,0 23.222557,13.79887 27.241547,19.6226 3.56576,5.16699 3.6397,10.68815 0.23315,17.41064 -1.98521,3.91764 -3.03392,4.96676 -4.96481,4.96676 -1.34639,0 -2.84897,-0.7875 -3.33908,-1.75 z"
     id="path3791"
     inkscape:connector-curvature="0" />
  <path
     style="fill:#ff0000;fill-opacity:1;stroke:#000000;stroke-opacity:1"
     d="m 7.0105691,152.51273 c -2.0385773,-2.45633 -0.5620534,-4.02878 7.2799809,-7.75295 12.553891,-5.96181 25.473613,-15.33194 37.137228,-26.93406 6.411839,-6.37804 10.54437,-11.22231 10,-11.72229 -1.433381,-1.31651 -15.914697,-6.642473 -26.934558,-9.906033 -5.460672,-1.61719 -10.363709,-3.6303 -10.895637,-4.47359 -0.700266,-1.11015 0.168697,-4.11297 3.149059,-10.88203 2.263911,-5.14184 5.939603,-14.02765 8.168206,-19.74624 l 4.052005,-10.39744 -10.233426,0.64943 c -5.628385,0.35719 -11.872096,0.92607 -13.874914,1.26419 -3.480629,0.58759 -3.756715,0.41813 -6.2500001,-3.83634 C 5.3506354,43.216227 5.2584261,41.568397 8.25,42.368527 c 1.2375,0.33099 9.053126,0.9008 17.368057,1.26623 l 15.118057,0.66444 2.820047,-8.3996 c 1.551026,-4.61978 3.770273,-12.4496 4.931661,-17.3996 1.709347,-7.28548 2.483146,-9.0523 4.061896,-9.27454 2.620101,-0.36884 16.870266,7.00128 17.238992,8.91592 0.183156,0.95105 -1.23988,2.20926 -3.808916,3.36773 -4.74059,2.13771 -5.234576,2.91107 -9.028184,14.13405 l -2.824793,8.35684 14.343473,0 14.343473,0 4.186237,-5 c 2.30243,-2.75 4.718096,-5 5.368146,-5 1.228134,0 15.631854,14.03042 15.631854,15.22672 0,0.37383 -1.9125,1.52762 -4.25,2.56397 -2.3375,1.03636 -4.74471,2.51991 -5.349356,3.2968 -0.604646,0.77688 -3.01817,7.1039 -5.363386,14.06004 -2.345216,6.95614 -6.350505,16.85614 -8.900643,22 L 79.5,100.5 l 11.673651,5.71662 c 13.537489,6.62936 16.847999,9.9533 17.588509,17.65993 0.46037,4.79119 -1.67299,11.12345 -3.74753,11.12345 -0.51371,0 -2.63966,-1.85315 -4.72432,-4.11812 C 95.67977,125.8726 87.622731,119.64026 79.2709,114.62279 l -6.2291,-3.74221 -8.907239,9.31714 C 52.983536,131.8619 42.25613,139.6271 26.145113,147.697 13.318648,154.12169 9.2050975,155.15698 7.0105691,152.51273 z"
     id="path3789"
     inkscape:connector-curvature="0" />
  <path
     style="fill:#ffffff;fill-opacity:1;stroke:#000000;stroke-opacity:1"
     d="M 70.075857,92.851307 C 74.617442,83.949067 84,56.458567 84,52.054157 c 0,-0.69501 -5.458385,-1.05416 -16.021439,-1.05416 -15.663714,0 -16.042873,0.0502 -16.981439,2.25 -7.778821,18.23162 -14.849623,36.17964 -14.485459,36.76887 0.254048,0.41106 2.830353,1.04554 5.725122,1.40995 2.894768,0.3644 9.313215,1.72623 14.263215,3.02628 4.95,1.30005 9.553354,2.40449 10.229676,2.45431 0.676322,0.0498 2.182104,-1.77632 3.346181,-4.0581 z"
     id="path3787"
     inkscape:connector-curvature="0" />
  <path
     style="fill:#000000;fill-opacity:1;stroke:#000000;stroke-opacity:1"
     d="m 227.17385,148.25 c 0.18728,-0.4125 1.80626,-3.56249 3.59772,-6.99998 5.29429,-10.15879 6.89207,-19.82328 4.8274,-29.19945 -0.0544,-0.24719 3.72603,-0.52167 8.40103,-0.60997 12.61487,-0.23825 19.91227,-1.39443 20.88753,-3.30937 0.45692,-0.89718 1.1079,-3.09373 1.44662,-4.88123 0.60012,-3.16698 0.52608,-3.250003 -2.89856,-3.250003 -1.93293,0 -7.81598,0.479653 -13.07345,1.065903 -8.5667,0.95524 -9.75643,0.88724 -11.46059,-0.65499 -3.8963,-3.526103 -2.47814,-4.078943 12.05841,-4.700643 7.67798,-0.32838 14.89498,-1.09745 16.03778,-1.70906 2.61342,-1.39866 5.6813,-0.46944 7.08025,2.14452 0.82254,1.53693 0.67007,2.86543 -0.64755,5.642103 -0.94788,1.99751 -1.94173,5.5687 -2.20856,7.93598 -0.56054,4.97317 0.28448,4.63505 -15.70663,6.28466 -6.04161,0.62324 -11.27194,1.59785 -11.62296,2.16581 -0.35102,0.56796 -0.90329,3.27082 -1.22728,6.00636 -0.81532,6.88409 -4.97918,15.5145 -9.92397,20.56936 -3.71064,3.79324 -6.49512,5.54379 -5.56719,3.5 z"
     id="path3785"
     inkscape:connector-curvature="0" />
  <path
     style="fill:#ff0000;fill-opacity:1;stroke:#000000;stroke-opacity:1;stroke-linecap:butt"
     d="m 122.49304,83.500537 c 0.004,-29.97471 0.37623,-54.49971 0.82755,-54.5 0.45133,-3e-4 2.95529,1.79946 5.56436,3.99946 l 4.74376,4 21.67146,0 21.67145,0 2.64708,-4 c 1.45589,-2.2 3.32351,-4 4.15026,-4 1.83689,0 15.97806,9.99169 16.68998,11.7926 0.29395,0.74358 -0.98019,2.17241 -2.99982,3.36402 -1.93094,1.13928 -3.94917,2.89053 -4.48496,3.89166 -1.18194,2.20848 -1.18975,58.535503 -0.01,71.451723 0.58514,6.40575 0.49259,9.33559 -0.32107,10.16424 -1.43059,1.45694 -11.26175,4.38386 -12.05624,3.58937 C 180.26413,132.93079 180,129.36667 180,125.33333 L 180,118 l -22.45794,0 -22.45793,0 -0.29207,7.73994 -0.29206,7.73994 -4.5,2.20103 c -8.2035,4.01249 -7.51474,8.80003 -7.50696,-52.180373 z"
     id="path3783"
     inkscape:connector-curvature="0" />
  <path
     style="fill-opacity:1;stroke:#000000;stroke-opacity:1;opacity:1;fill:#ffffff"
     d="m 180,77.499997 0,-33.5 -22.5,0 -22.5,0 0,33.5 0,33.500003 22.5,0 22.5,0 0,-33.500003 z"
     id="path3781"
     inkscape:connector-curvature="0" />
  <path
     style="fill:#000000;fill-opacity:1;stroke:#000000;stroke-opacity:1"
     d="m 318.5,123.70777 c -7.45758,-4.03555 -16.84363,-10.93258 -18.92828,-13.90884 -3.27715,-4.67879 -0.86339,-9.46118 4.21253,-8.34632 2.34128,0.51424 5.68703,3.56207 13.17691,12.00361 12.86606,14.50083 13.17326,16.54733 1.53884,10.25155 z"
     id="path3819"
     inkscape:connector-curvature="0" />
  <path
     style="fill:#000000"
     d="m 260.29337,-238752.99 c 3.73636,3.42 8.58014,8.86 10.76397,12.07 l 3.9706,5.85 -5.26397,4.18 c -2.89518,2.29 -6.7209,5.12 -8.50159,6.28 -3.36537,2.19 -4.16158,3.62 -2.01238,3.6 1.73904,-0 11.34194,-4.56 14.74317,-6.99 1.54856,-1.1 3.0509,-2 3.33851,-2 1.26128,0 6.95802,16.97 7.21665,21.5 0.33038,5.78 1.74213,6.63 5.76845,3.47 3.07203,-2.42 3.27117,-3.68 1.20774,-7.64 -0.81151,-1.56 -3.0623,-6.88 -5.00176,-11.83 l -3.52629,-9 4.25177,-3.48 c 2.33847,-1.92 6.38926,-5.56 9.00176,-8.11 4.15793,-4.05 4.75,-5.14 4.75,-8.77 0,-3.14 -0.38959,-4.14 -1.60705,-4.14 -0.88388,0 -5.63983,4.26 -10.56877,9.47 l -8.96171,9.47 -4.99371,-6 c -5.34635,-6.43 -13.48452,-12.4 -18.36876,-13.5 -2.67707,-0.59 -2.26874,0 3.79337,5.57 z m -163.282382,-2.26 c -4.358057,3.97 -5.010988,9.3 -5.010988,40.89 0,25.41 0.125025,27.36 1.75,27.32 2.789136,-0.1 18.56983,-6.35 18.95886,-7.55 0.19408,-0.6 -1.46101,-2.35 -3.67799,-3.89 l -4.03087,-2.79 0,-21.29 c 0,-18.03 0.24126,-21.54 1.57143,-22.87 2.25703,-2.26 59.84312,-2.37 63.05016,-0.12 2.76329,1.93 4.89139,7.81 8.20797,22.67 2.61711,11.73 2.89295,12.38 5.21683,12.38 l 2.45361,0 0,-13 c 0,-11.8 0.21441,-13.36 2.31599,-16.92 2.69419,-4.56 2.37387,-7.01 -1.51901,-11.64 -4.94013,-5.87 -5.50338,-5.94 -47.74908,-5.94 l -38.51635,0 -3.020562,2.75 z m -58.65222,4.8 c -3.234052,3.23 -2.599245,6.79 1.926925,10.79 13.020965,11.52 16.137447,16.14 20.042642,29.69 1.918898,6.67 2.861808,8.53 4.427616,8.77 2.768164,0.42 3.059606,-1.07 2.095683,-10.78 -1.405466,-14.15 -6.136638,-26.72 -12.99262,-34.53 -5.943253,-6.77 -11.308657,-8.13 -15.500246,-3.94 z m 182.861452,3.7 c -0.56357,0.69 -1.55856,3.27 -2.21108,5.75 -3.17821,12.05 -13.42423,28.4 -24.41777,38.95 -3.85256,3.69 -4.7274,7.05 -1.84137,7.06 2.8104,0 20.68648,-12.61 28.26365,-19.96 8.25954,-8 11.52688,-14.27 10.56616,-20.28 -1.45221,-9.08 -7.15834,-15.43 -10.35959,-11.52 z m -78.04096,26.5 c -0.4901,0.96 -1.44064,4 -2.1123,6.75 -1.7973,7.36 -7.31164,17.15 -13.66662,24.27 -5.17474,5.8 -6.43598,9.23 -3.39189,9.23 4.06595,0 23.22256,-13.8 27.24155,-19.62 3.56576,-5.17 3.6397,-10.69 0.23315,-17.41 -1.98521,-3.92 -3.03392,-4.97 -4.96481,-4.97 -1.34639,0 -2.84897,0.79 -3.33908,1.75 z m -109.168691,22.74 c -2.038577,2.45 -0.562053,4.03 7.279981,7.75 12.553891,5.96 25.473613,15.33 37.137228,26.93 6.411839,6.38 10.54437,11.23 10,11.73 -1.433381,1.31 -15.914697,6.64 -26.934558,9.9 -5.460672,1.62 -10.363709,3.63 -10.895637,4.48 -0.700266,1.11 0.168697,4.11 3.149059,10.88 2.263911,5.14 5.939603,14.03 8.168206,19.74 l 4.052005,10.4 -10.233426,-0.65 c -5.628385,-0.35 -11.872096,-0.92 -13.874914,-1.26 -3.480629,-0.59 -3.756715,-0.42 -6.25,3.83 -3.257878,5.56 -3.350087,7.21 -0.358513,6.41 1.2375,-0.33 9.053126,-0.9 17.368057,-1.26 l 15.118057,-0.67 2.820047,8.4 c 1.551026,4.62 3.770273,12.45 4.931661,17.4 1.709347,7.29 2.483146,9.05 4.061896,9.27 2.620101,0.37 16.870266,-7 17.238992,-8.91 0.183156,-0.95 -1.23988,-2.21 -3.808916,-3.37 -4.74059,-2.14 -5.234576,-2.91 -9.028184,-14.13 l -2.824793,-8.36 14.343473,0 14.34347,0 4.18624,5 c 2.30243,2.75 4.7181,5 5.36815,5 1.22813,0 15.63185,-14.03 15.63185,-15.23 0,-0.37 -1.9125,-1.52 -4.25,-2.56 -2.3375,-1.04 -4.74471,-2.52 -5.34936,-3.3 -0.60464,-0.77 -3.01817,-7.1 -5.36338,-14.06 -2.34522,-6.95 -6.35051,-16.85 -8.90065,-22 l -4.63661,-9.35 11.67365,-5.72 c 13.53749,-6.63 16.848,-9.95 17.58851,-17.66 0.46037,-4.79 -1.67299,-11.12 -3.74753,-11.12 -0.51371,0 -2.63966,1.85 -4.72432,4.12 -4.61054,5.01 -12.66758,11.24 -21.01941,16.26 l -6.2291,3.74 -8.907239,-9.32 c -11.151025,-11.66 -21.878431,-19.43 -37.989448,-27.5 -12.826465,-6.42 -16.940016,-7.46 -19.134544,-4.81 z m 63.065288,59.66 c 4.541583,8.9 13.924143,36.39 13.924143,40.8 0,0.69 -5.45839,1.05 -16.021439,1.05 -15.663714,0 -16.042873,-0 -16.981439,-2.25 -7.778821,-18.23 -14.849623,-36.18 -14.485459,-36.77 0.254048,-0.41 2.830353,-1.04 5.725122,-1.41 2.894768,-0.36 9.313215,-1.73 14.263215,-3.03 4.95,-1.3 9.553354,-2.4 10.229676,-2.45 0.676322,-0 2.182104,1.78 3.346181,4.06 z m 157.097993,-55.4 c 0.18728,0.41 1.80626,3.56 3.59772,7 5.29429,10.16 6.89207,19.82 4.8274,29.2 -0.0544,0.25 3.72603,0.52 8.40103,0.61 12.61487,0.24 19.91227,1.39 20.88753,3.31 0.45692,0.9 1.1079,3.09 1.44662,4.88 0.60012,3.17 0.52608,3.25 -2.89856,3.25 -1.93293,0 -7.81598,-0.48 -13.07345,-1.07 -8.5667,-0.95 -9.75643,-0.88 -11.46059,0.66 -3.8963,3.53 -2.47814,4.08 12.05841,4.7 7.67798,0.33 14.89498,1.1 16.03778,1.71 2.61342,1.4 5.6813,0.47 7.08025,-2.15 0.82254,-1.53 0.67007,-2.86 -0.64755,-5.64 -0.94788,-2 -1.94173,-5.57 -2.20856,-7.93 -0.56054,-4.98 0.28448,-4.64 -15.70663,-6.29 -6.04161,-0.62 -11.27194,-1.6 -11.62296,-2.16 -0.35102,-0.57 -0.90329,-3.28 -1.22728,-6.01 -0.81532,-6.88 -4.97918,-15.52 -9.92397,-20.57 -3.71064,-3.79 -6.49512,-5.54 -5.56719,-3.5 z m -104.68081,64.75 c 0.004,29.97 0.37623,54.5 0.82755,54.5 0.45133,0 2.95529,-1.8 5.56436,-4 l 4.74376,-4 21.67146,0 21.67145,0 2.64708,4 c 1.45589,2.2 3.32351,4 4.15026,4 1.83689,0 15.97806,-9.99 16.68998,-11.79 0.29395,-0.75 -0.98019,-2.18 -2.99982,-3.37 -1.93094,-1.14 -3.94917,-2.89 -4.48496,-3.89 -1.18194,-2.21 -1.18975,-58.53 -0.01,-71.45 0.58514,-6.41 0.49259,-9.34 -0.32107,-10.16 -1.43059,-1.46 -11.26175,-4.39 -12.05624,-3.59 -0.32272,0.32 -0.58685,3.88 -0.58685,7.92 l 0,7.33 -22.45794,0 -22.45793,0 -0.29207,-7.74 -0.29206,-7.74 -4.5,-2.2 c -8.2035,-4.01 -7.51474,-8.8 -7.50696,52.18 z m 57.50696,6 0,33.5 -22.5,0 -22.5,0 0,-33.5 0,-33.5 22.5,0 22.5,0 0,33.5 z m 138.5,-46.21 c -7.45758,4.04 -16.84363,10.93 -18.92828,13.91 -3.27715,4.68 -0.86339,9.46 4.21253,8.35 2.34128,-0.52 5.68703,-3.56 13.17691,-12.01 12.86606,-14.5 13.17326,-16.54 1.53884,-10.25 z"
     id="path3815"
     inkscape:connector-curvature="0" />
</svg>
