<?xml version="1.0" encoding="UTF-8" standalone="no"?>
				  <svg
				  xmlns:rdf="http://www.w3.org/1999/02/22-rdf-syntax-ns#"
				  xmlns:svg="http://www.w3.org/2000/svg"
				  xmlns="http://www.w3.org/2000/svg"
				  xmlns:xlink="http://www.w3.org/1999/xlink"
				  version="1.1"  width="500" height="450">
<path style="fill:#000000; stroke:none;" d="M121 71C120.21 76.1218 116.481 78.5364 114.318 83C111.703 88.3951 112.288 98.2951 113.705 104C115.169 109.892 118.035 119.559 121.316 124.571C125.569 131.066 132.129 132.483 131.946 142C131.762 151.592 125.075 154.942 121.599 162.299C117.896 170.134 115.923 182.336 115.076 191C114.037 201.62 114.168 211.427 115.92 222C116.621 226.23 117.074 231.199 122.019 232.384C131.451 234.646 131 224.03 131 218C131 199.613 128.153 177.082 139.343 161.02C152.261 142.479 159.702 187.605 174.682 175.258C178.606 172.024 177.074 164.852 175.022 161.019C171.528 154.494 160.253 151.715 160.296 143C160.328 136.267 174.874 128.689 180.91 129.241C186.693 129.769 191.629 140.034 192 145C198.256 145.966 205.855 153.414 206.436 160C207.213 168.813 202.22 177.527 200.514 186C197.288 202.017 207.925 235.283 227.995 234.471C233.449 234.251 234.501 229.232 232.466 225.015C226.167 211.962 211.079 204.198 214.378 188C216 180.036 223.335 177.2 224.156 169C225.574 154.841 219.103 145.898 210.956 135C208.244 131.372 199.297 124.958 199.921 120.093C201.202 110.119 222.225 109.366 225.366 98.9992C228.074 90.0627 226.264 77.6674 222.736 69.1288C220.949 64.804 213.446 60.5028 216.468 54.8033C219.999 48.145 239.296 45.6797 237.508 37.0548C236.122 30.371 226.304 33.6062 222 34.4869C209.476 37.0493 195.987 40.0025 184 44.4452C178.958 46.314 174.008 45.8248 173 52L171 52C158.363 45.1215 172.663 25.9411 161.606 19.0324C154.476 14.5775 152.593 25.578 152.17 30C151.443 37.5974 155.593 46.844 153.343 53.9807C151.883 58.6116 147.986 58.828 144 60.243C136.098 63.0482 129.394 70.3737 121 71M263 170L265 170C273.38 172.086 281.112 176.753 290 176.985C300.028 177.247 310.484 177.396 320 173.728C327.001 171.03 328.889 165.609 333.158 160.058C334.994 157.671 338.057 156.243 339.571 153.701C347.815 139.863 344 116.403 344 101C344 89.943 348.796 63.6717 340.442 55.3217C336.284 51.1655 330.434 54.4454 328.483 59.0193C325.453 66.1234 329.801 76.4356 325.062 82.6821C322.374 86.2251 315.883 85 312 85C299.816 85 287.138 86.0175 275.005 84.9414C258.847 83.5084 278.974 54.2843 258.954 53.8858C249.014 53.6879 252 76.1535 252 82C252 101.579 249.11 123.697 252.326 143C253.967 152.854 261.951 160.523 263 170M168 71L168 69C176.398 66.0633 190.584 56.4256 199.725 60.6034C204.974 63.0021 205.639 72.1379 206.09 77C207.398 91.1267 210.999 99.2687 194 103.374C191.124 104.069 188.031 106.132 185.04 104.867C172.465 99.5488 178.906 74.3108 168 71M147 77.4128C155.841 75.8076 158.158 89.7883 160.194 96C161.781 100.839 166.463 104.941 167.203 109.996C167.979 115.297 155.105 126.609 150 127.477C142.008 128.835 140.602 119.087 137.519 114C129.38 100.569 126.649 81.1079 147 77.4128M326 103L326 105C326 117.306 328.191 131.985 325.471 144C321.672 160.785 288.773 164.975 276.133 155.298C268.177 149.206 269.003 132.965 269 124C268.998 119.473 266.861 107.168 270.742 104.028C273.922 101.456 282.129 103 286 103L326 103M263 206C261.394 218.716 269.758 237.366 282.005 243.366C297.976 251.191 322.882 252.876 328.196 273C333.797 294.208 312.759 299.704 298.054 305.34C292.415 307.501 290.524 310.502 284 311.285C278.922 311.895 268.585 314.1 264.333 310.397C258.063 304.935 267.193 298.661 268.566 293.946C271.337 284.435 270.136 267.265 267 258L266 259C262.841 255.231 257.698 247.621 252.858 254.229C246.221 263.29 253.288 284.029 251.561 295C248.271 315.904 235.027 330.664 227 350L225 350C222.455 347.493 218.376 345.996 216.638 342.856C212.091 334.637 213.52 325.898 212.91 317C211.993 303.595 209 290.467 209 277C209 271.566 211.612 252.145 202.934 251.662C187.573 250.808 191.647 276.285 193.144 284.946C193.81 288.801 197.245 290.975 197.811 295.005C200.827 316.495 183.857 311.516 169 309L171 308L170 307C160.068 304.73 147.316 303.622 139.055 297.272C128.605 289.238 127.561 266.397 137.147 257.274C147.197 247.71 166.17 249.863 176.687 240.802C183.104 235.274 201.598 208.794 185.791 202.623C176.95 199.171 177.447 222.258 170.896 225.976C162.181 230.921 149.943 229.792 141.299 234.652C135.557 237.88 123.384 245.763 119.634 251.147C111.644 262.62 111.418 287.482 119.479 298.853C121.598 301.841 125.275 302.493 127.698 305.147C138.372 316.838 149.99 324.656 167 325.91C175.306 326.522 191.597 322.523 198.686 327.179C205.211 331.465 205.366 350.871 207.904 358C211.311 367.569 222.327 376.079 229.313 382.86C235.246 388.618 242.736 391.63 248.856 396.723C253.037 400.202 254.575 404.461 260 406.736C262.991 407.99 271.67 409.773 273.307 405.682C276.447 397.834 267.928 393.632 263 390.431C257.085 386.587 254.195 381.211 249.416 376.737C245.596 373.16 239.35 370.404 235 367L236 365C239.471 361.097 241.712 357.272 242 352L245 352C249.65 348.043 252.673 341.773 254.594 336C255.666 332.779 255.54 328.169 259.147 326.603C265.704 323.757 275.924 326.504 283 325.83C304.6 323.775 329.214 317.687 340.922 297.942C344.353 292.155 344.997 286.591 345 280C345.003 272.588 346.113 261.499 341.852 255.058C335.717 245.784 321.425 244.24 312.123 240.276C309.241 239.048 308.465 235.897 305.828 234.34C299.558 230.635 292.272 229.955 286 226.517C281.923 224.282 278.113 220.734 277.228 216C276.536 212.303 277.567 203.989 272.772 202.496C269.867 201.591 265.825 205.219 263 206z"/>
</svg>
