<?xml version="1.0" encoding="UTF-8" standalone="no"?>
<!-- Created with Inkscape (http://www.inkscape.org/) -->

<svg
   xmlns:dc="http://purl.org/dc/elements/1.1/"
   xmlns:cc="http://creativecommons.org/ns#"
   xmlns:rdf="http://www.w3.org/1999/02/22-rdf-syntax-ns#"
   xmlns:svg="http://www.w3.org/2000/svg"
   xmlns="http://www.w3.org/2000/svg"
   xmlns:sodipodi="http://sodipodi.sourceforge.net/DTD/sodipodi-0.dtd"
   xmlns:inkscape="http://www.inkscape.org/namespaces/inkscape"
   id="svg3112"
   version="1.1"
   inkscape:version="0.48.4 r9939"
   width="67"
   height="65"
   sodipodi:docname="楚.png">
  <metadata
     id="metadata3118">
    <rdf:RDF>
      <cc:Work
         rdf:about="">
        <dc:format>image/svg+xml</dc:format>
        <dc:type
           rdf:resource="http://purl.org/dc/dcmitype/StillImage" />
        <dc:title></dc:title>
      </cc:Work>
    </rdf:RDF>
  </metadata>
  <defs
     id="defs3116" />
  <sodipodi:namedview
     pagecolor="#ffffff"
     bordercolor="#666666"
     borderopacity="1"
     objecttolerance="10"
     gridtolerance="10"
     guidetolerance="10"
     inkscape:pageopacity="0"
     inkscape:pageshadow="2"
     inkscape:window-width="1024"
     inkscape:window-height="699"
     id="namedview3114"
     showgrid="false"
     inkscape:zoom="3.6307692"
     inkscape:cx="33.5"
     inkscape:cy="32.5"
     inkscape:window-x="-4"
     inkscape:window-y="2"
     inkscape:window-maximized="1"
     inkscape:current-layer="svg3112" />
  <g
     id="g3122"
     transform="translate(-0.27542385,0.55084738)">
    <path
       style="fill:#e6e6e6;fill-opacity:1"
       d="m 26.749616,63.21742 c -3.330193,-0.424194 -5.15153,-3.457849 -4.383013,-7.300434 0.52084,-2.6042 0.279105,-2.892825 -2.926532,-3.494207 -4.3881,-0.823212 -5.911223,-3.396006 -4.571361,-7.721748 0.545321,-1.760567 1.287102,-5.111173 1.648404,-7.445791 0.807773,-5.219584 2.097081,-6.196097 3.657901,-2.770468 1.001056,2.197078 0.833347,3.318315 -1.087809,7.272631 l -2.271331,4.675084 2.202847,1.783756 c 3.689963,2.987951 5.535351,2.24783 7.858134,-3.151624 C 29.320831,39.383445 29.647698,35 27.62736,35 25.365423,35 18.276237,26.53714 17.485121,22.892495 17.080109,21.026623 16.247971,19.182128 15.635926,18.793617 14.914744,18.335831 15.662813,16.911365 17.761558,14.74601 21.347995,11.045746 21.714404,9.3267854 19.531803,6.4411296 17.879021,4.255956 17.517421,1 18.927522,1 c 0.510137,0 2.030033,1.4087479 3.377547,3.130551 l 2.450024,3.130551 5.424989,-2.5664309 c 2.983744,-1.4115369 7.516423,-3.0930598 10.072619,-3.7367174 4.034254,-1.01583692 5.143069,-0.92531727 8.401642,0.6858798 3.88723,1.9220358 5.900933,5.9939029 4.757818,9.6206875 C 52.664087,13.637951 51,12.458545 51,9.5549244 51,7.8913543 50.030292,6.7677261 47.598871,5.6139414 43.410227,3.6262999 41.615974,3.5568603 42.327058,5.4099164 c 0.95083,2.4778239 -1.609134,8.6496476 -4.648517,11.2071196 -3.665573,3.084377 -3.301919,4.00299 5.071459,12.810825 3.4375,3.615856 6.25,6.987537 6.25,7.492624 0,0.505087 -2.25,3.380199 -5,6.389137 -4.544288,4.972175 -5.002864,5.91373 -5.031425,10.330587 -0.02563,3.963372 -0.475954,5.183043 -2.441368,6.61225 -3.310198,2.407105 -6.518747,3.380067 -9.777591,2.964961 z M 34,58 c 1.899264,-1.899264 2.854162,-8.006351 1.25,-7.994423 -0.4125,0.0031 -2.458929,0.480136 -4.547621,1.060153 -3.937965,1.093548 -6.216118,4.431913 -5.067338,7.425586 C 26.469573,60.66607 31.637466,60.362534 34,58 z M 32.895717,47.085612 c 0.873756,-0.553258 1.127527,-1.57596 0.67858,-2.734687 -0.691339,-1.784341 -0.768528,-1.781096 -2.145717,0.09021 -2.359177,3.205609 -1.594838,4.583312 1.467137,2.644482 z m 7.793657,-4.857848 c 1.204156,-0.95027 2.490256,-2.964532 2.858,-4.476138 0.587569,-2.415191 -0.12943,-3.56687 -5.914395,-9.5 L 31.049957,21.5 27.943939,23.25 c -1.70831,0.9625 -3.730427,1.75 -4.493594,1.75 -0.889199,0 -1.166611,0.628549 -0.772368,1.75 0.820874,2.335032 5.449476,7.289264 6.31208,6.756145 C 30.324373,32.681492 34,36.145732 34,38.227963 c 0,1.98408 2.590849,5.798911 3.904988,5.749801 0.327256,-0.01223 1.58023,-0.79973 2.784386,-1.75 z M 26.473214,20.383929 c 1.844674,-1.844674 1.62552,-3.288284 -0.724197,-4.770448 C 23.748996,14.3519 20,17.313465 20,20.154988 c 0,2.359899 4.193928,2.508227 6.473214,0.228941 z M 36.865276,11.50066 C 38.644397,9.4743542 39.695332,7.3696237 39.36188,6.5006604 39.045158,5.6752972 38.566099,5 38.297303,5 37.507768,5 31.652585,8.3543414 29.741904,9.9012521 28.100442,11.2302 28.094139,11.446541 29.646892,13.162314 c 2.371222,2.620171 3.734416,2.306367 7.218384,-1.661654 z"
       id="path3130"
       inkscape:connector-curvature="0" />
    <path
       style="fill:#aaaaaa;fill-opacity:1"
       d="m 23.52456,61.027138 c -1.272275,-1.405847 -1.609753,-2.851172 -1.174218,-5.028846 0.555133,-2.775669 0.339837,-3.110256 -2.347146,-3.647653 -4.79735,-0.95947 -5.553018,-2.626013 -4.187802,-9.235734 C 16.466927,39.960492 17,36.394197 17,35.189805 17,33.955758 17.625275,33 18.432612,33 c 2.479431,0 2.752009,3.70446 0.617368,8.390288 -2.629122,5.771278 -2.58288,6.456605 0.51512,7.634463 4.159507,1.581442 4.924214,1.206096 7.235634,-3.551502 3.372446,-6.941511 2.969191,-9.697964 -1.889112,-12.913037 -2.804219,-1.855744 -4.70313,-4.174707 -6.045568,-7.382886 -1.076454,-2.572529 -2.366454,-5.426327 -2.866667,-6.341772 -0.68352,-1.25092 -0.318372,-2.051752 1.469725,-3.223359 3.422677,-2.242624 4.022461,-5.195675 1.976705,-9.7323522 -2.334352,-5.1766669 -0.984598,-6.21573582 2.510866,-1.9329172 l 2.802804,3.4341374 5.870257,-2.6028106 c 11.598529,-5.1426672 16.450797,-5.4503255 20.358442,-1.2908282 1.627019,1.731883 2.053384,3.2191304 1.762661,6.1485207 L 52.367365,13.5 51.566302,10.2881 C 50.141563,4.5755346 42,1.3789436 42,6.5321186 c 0,3.7607524 -2.542976,9.1529224 -4.915342,10.4225734 -3.412875,1.826516 -2.454126,4.184156 4.834847,11.889283 l 6.919504,7.314563 -1.897898,3.216698 C 45.897267,41.14442 43.68349,43.597221 42.021606,44.825905 39.306006,46.833635 39,47.608688 39,52.479046 c 0,4.970153 -0.277108,5.630532 -3.344391,7.970063 -4.13536,3.154193 -9.565497,3.412932 -12.131049,0.578029 z M 34.171259,58.345012 C 35.270957,57.3498 36,55.31214 36,53.233722 c 0,-3.444981 -0.01228,-3.454135 -3.75,-2.794259 -5.24424,0.925847 -9.203085,6.274118 -6.583333,8.89387 1.281384,1.281384 6.691287,0.652698 8.504592,-0.988321 z M 33.664167,46.432783 C 34.537843,44.15602 32.207761,42.056368 30.973672,44.008359 30.454996,44.828762 30.023735,46.0625 30.015313,46.75 c -0.02204,1.799468 2.935263,1.542371 3.648854,-0.317217 z m 8.263253,-5.067642 c 1.139919,-1.449172 2.052654,-3.586672 2.028301,-4.75 C 43.906483,34.263171 32.996416,22 30.953196,22 c -2.180552,0 -8.899952,3.432305 -8.927398,4.560162 -0.0425,1.746673 5.930078,7.292424 8.214986,7.627901 1.36307,0.20013 2.39683,1.336126 2.88415,3.169387 C 34.004978,40.668104 36.74244,44 38.582407,44 c 0.699838,0 2.205094,-1.185686 3.345013,-2.634859 z M 27.700849,19.337192 c 0.297942,-0.776425 -0.240612,-2.276142 -1.196787,-3.332704 -1.651934,-1.825366 -1.855584,-1.835959 -4.089856,-0.212754 -2.184252,1.586865 -3.18126,5.107878 -1.829194,6.459945 0.930297,0.930297 6.518797,-1.358627 7.115837,-2.914487 z m 8.730264,-7.266645 C 38.885527,9.5569987 40.050958,7.5751772 39.665445,6.5705472 38.776899,4.255034 36.799708,4.6380695 32.11195,8.0338634 28.046852,10.978605 27.86799,11.633672 30.278145,14.75 c 1.430318,1.8494 1.952862,1.621846 6.152968,-2.679453 z"
       id="path3128"
       inkscape:connector-curvature="0" />
    <path
       style="fill:#6e6e6e;fill-opacity:1"
       d="M 24.44113,61.580108 C 23.104641,60.602497 22.5,58.967178 22.5,56.330108 c 0,-3.409202 -0.294166,-3.864105 -2.67682,-4.139469 -4.530617,-0.523604 -5.206067,-2.280134 -3.817339,-9.927118 1.627092,-8.959529 1.809708,-9.495552 2.987096,-8.767886 1.498156,0.925911 1.158254,6.720377 -0.52474,8.945495 -2.387936,3.157133 -1.788145,5.520883 1.781803,7.022009 3.972676,1.670469 4.855874,1.042801 7.640303,-5.42978 1.651285,-3.838514 1.891921,-5.475954 1.107819,-7.538299 -0.91088,-2.395795 -0.79814,-2.60564 1.243666,-2.314844 1.48273,0.211171 2.417357,1.187272 2.751781,2.873891 0.278537,1.404758 1.529474,3.841348 2.77986,5.414644 l 2.27343,2.860538 2.97657,-2.851736 c 4.677628,-4.481451 4.053074,-7.211544 -3.407693,-14.89594 l -6.384263,-6.575625 -4.612605,2.247006 c -2.536932,1.235853 -4.614013,2.77498 -4.615736,3.420281 -0.0017,0.645301 1.205166,2.670301 2.681974,4.5 2.493658,3.08953 2.392144,3.050187 -1.423769,-0.551785 -2.520193,-2.378898 -4.697473,-5.665392 -5.631191,-8.5 -1.488708,-4.51946 -1.468313,-4.677891 0.923769,-7.176209 2.764872,-2.887663 3.150147,-6.632169 0.977888,-9.5041514 C 17.651455,2.955086 17.632862,2 19.464816,2 c 0.805649,0 1.998016,1.0125 2.649704,2.25 1.545721,2.9351915 3.051577,3.8570409 4.43077,2.7124125 C 28.749221,5.133312 41.118269,1 44.38797,1 49.413681,1 53.014652,4.2951286 52.936614,8.8225801 52.87703,12.279406 52.814384,12.350035 51.892282,10 50.580203,6.6560842 47.090252,4.0494978 43.888672,4.0222358 41.675977,4.0033944 41.346553,4.3620471 41.730716,6.3716656 42.282472,9.2579901 39.57845,14.757151 36.364242,17.285447 35.063909,18.308289 34,19.488115 34,19.907282 c 0,0.419167 3.14152,4.099006 6.981155,8.17742 3.839635,4.078414 6.989635,7.997076 7,8.708139 0.01037,0.711063 -2.085699,3.542769 -4.657919,6.29268 -4.371097,4.673056 -4.662181,5.319428 -4.453647,9.88961 0.211495,4.635079 0.02631,5.023508 -3.555371,7.457321 -4.227568,2.872707 -7.974155,3.268159 -10.873088,1.147656 z M 33.345049,58.75 C 37.784487,54.683878 37.661134,47.505437 33.192915,49.896755 32.059128,50.50354 30.364008,51 29.425984,51 25.567332,51 23.4653,58.006739 26.75,59.919901 29.376005,61.449408 30.643238,61.224613 33.345049,58.75 z M 33.819551,45.828328 C 33.360726,42.710151 31.53439,42.531726 30.193753,45.474105 29.126919,47.81555 29.22895,48 31.59099,48 c 2.046685,0 2.48523,-0.427349 2.228561,-2.171672 z M 26.75,20.755166 c 3.139797,-2.511978 -0.0016,-7.761258 -3.518322,-5.879156 -3.467735,1.855875 -4.487288,3.777861 -3.240168,6.108125 1.156106,2.160205 3.887869,2.067657 6.75849,-0.228969 z m 9.5,-8.208961 C 40.146599,8.9673193 41.011354,6.3253235 38.590257,5.3962613 36.848033,4.7277071 32.139622,7.0832506 29.592652,9.8976208 27.754988,11.928217 27.751824,12.068288 29.5,14 c 0.995486,1.1 2.077731,1.99785 2.404988,1.995222 0.327256,-0.0026 2.282512,-1.554685 4.345012,-3.449017 z"
       id="path3126"
       inkscape:connector-curvature="0" />
    <path
       style="fill:#333333;fill-opacity:1"
       d="M 25.97138,62.353308 C 23.333233,61.637623 21.912883,58.359333 23.000992,55.497392 24.041231,52.761354 23.986199,52.709849 18.81665,51.581199 17.340808,51.258983 15.860129,50.134667 15.526254,49.082718 14.801731,46.79995 15.857181,42 17.083657,42 c 0.476763,0 0.455994,1.080609 -0.04615,2.401354 -1.065975,2.803726 0.808252,5.030032 5.145748,6.112391 2.453916,0.612339 2.875899,0.255752 4.937232,-4.172089 C 28.360173,43.678745 29.392482,39.8125 29.414505,37.75 29.436527,35.6875 29.712273,34 30.027273,34 31.202872,34 33,36.457534 33,38.065141 33,39.864533 36.648261,45 37.926557,45 c 0.429769,0 1.972108,-1.103513 3.42742,-2.452251 4.656434,-4.315437 3.744143,-8.017166 -3.824554,-15.518587 L 31.058847,20.6161 26.529423,22.878204 c -5.263443,2.62869 -5.612685,4.308146 -1.781519,8.567077 2.482243,2.759396 2.392037,2.727824 -0.93306,-0.326567 -2.02453,-1.859707 -4.198624,-4.784707 -4.831319,-6.5 -0.632695,-1.715293 -1.584422,-3.934702 -2.114949,-4.93202 -0.752274,-1.414174 -0.293688,-2.577425 2.083415,-5.284796 3.569131,-4.065016 3.49668,-3.654136 1.4171,-8.0365262 -0.897001,-1.8902875 -1.285393,-3.7582956 -0.863096,-4.1511291 0.422298,-0.3928335 0.966701,-0.1577633 1.209783,0.5223781 0.243083,0.6801415 1.218045,2.1950336 2.166582,3.366427 L 24.606972,8.2328541 29.553486,5.774767 C 36.209671,2.4670877 43.359808,0.62250588 46.484844,1.4068401 50.426117,2.3960366 53.012399,5.5531926 52.909812,9.25 l -0.09019,3.25 -0.89217,-3.0715788 C 50.987628,6.192774 48.166755,4.1730361 44,3.7523852 42.026536,3.553156 41.544561,3.9212289 41.711576,5.5 42.091444,9.0908549 39.88118,14.027973 36.910487,16.224301 35.309719,17.4078 34,18.906109 34,19.553878 c 0,0.647768 3.15,4.705321 7,9.016784 3.85,4.311463 7,8.16058 7,8.553594 0,0.393013 -2.171549,3.113334 -4.825665,6.045157 -4.419505,4.88193 -4.790422,5.67772 -4.406947,9.45494 0.340368,3.352611 -0.01971,4.540069 -1.924335,6.346031 -3.627518,3.439606 -6.904245,4.459221 -10.871673,3.382924 z m 7.690234,-2.828847 c 2.342477,-1.640735 4.030563,-8.232284 2.500198,-9.762649 -1.25867,-1.25867 -8.19497,0.868487 -9.911812,3.039659 -0.6875,0.869434 -1.25,2.80728 -1.25,4.306325 0,3.941275 4.637589,5.235202 8.661614,2.416665 z M 34.282783,47.054823 C 35.411134,46.016411 34.031493,43 32.428195,43 31.037422,43 29,45.972545 29,48.001646 c 0,1.151225 3.729305,0.482828 5.282783,-0.946823 z M 25.397935,21.86455 c 3.233939,-1.473481 3.802591,-3.133246 1.969922,-5.749748 -1.922831,-2.745227 -3.497588,-2.670064 -6.287933,0.300122 -1.565437,1.666332 -2.063562,3.061269 -1.606926,4.5 0.746889,2.353239 2.298526,2.601929 5.924937,0.949626 z M 36.702393,12.803833 C 39.916925,9.6881857 41.009896,5.7421841 39.002052,4.5012685 37.893521,3.8161587 32.722434,6.4209907 29.244394,9.4164942 l -2.255607,1.9426678 2.179921,2.320419 c 2.842799,3.026022 3.598743,2.938148 7.533685,-0.875748 z m -19.632108,26.0295 C 17.108942,37.55 17.510641,35.6 17.96295,34.5 c 0.731655,-1.779362 0.898104,-1.814965 1.508796,-0.322726 0.962596,2.352124 0.268916,6.086813 -1.221746,6.577731 -0.771678,0.254136 -1.223105,-0.481207 -1.179715,-1.921672 z"
       id="path3124"
       inkscape:connector-curvature="0" />
  </g>
</svg>
